<?xml version="1.0" encoding="UTF-8"?><svg xmlns="http://www.w3.org/2000/svg" viewBox="0 0 8214.81 2016"><defs><style>.d{fill:#caa846;}</style></defs><g id="a"/><g id="b"><g id="c"><g><g><path class="d" d="M914.96,845.5c-38.35,0-69.44,31.09-69.44,69.44v184.93c0,19.79,8.3,37.64,21.58,50.28l283.08-283.07c-12.65-13.29-30.49-21.58-50.29-21.58h-184.94Z"/><path class="d" d="M683.61,1212.84v-410.88c0-65.37,53-118.37,118.37-118.37h410.89c33.3,0,63.39,13.76,84.9,35.9l175.52-175.52c-13.08-13.72-31.53-22.28-51.98-22.28H593.54c-39.68,0-71.84,32.16-71.84,71.84v827.75c0,20.46,8.56,38.9,22.28,51.98l175.53-175.52c-22.14-21.51-35.9-51.6-35.9-84.9Z"/><path class="d" d="M1493.16,593.53v561.92c0,7.66-6.21,13.86-13.86,13.86h-134.69c-7.38,0-13.35-5.98-13.35-13.35v-353.99c0-32.07-12.76-61.15-33.47-82.47l-147.59,147.59c11.86,12.46,19.16,29.3,19.16,47.86v240.3c0,7.78-6.3,14.07-14.07,14.07h-240.3c-18.56,0-35.4-7.29-47.86-19.15l-147.59,147.59c21.32,20.71,50.4,33.47,82.47,33.47h841.31c6.5,0,11.76-5.27,11.76-11.76V605.18c0-67.15-26.98-127.99-70.68-172.29l-111.09,111.08c12.29,12.89,19.86,30.33,19.86,49.56Z"/><path class="d" d="M2016,1008C2016,451.3,1564.7,0,1008,0c-.1,0-.19,0-.29,0s-.19,0-.28,0C451.04,0,0,451.03,0,1007.4c0,.1,0,.2,0,.3s0,.2,0,.3c0,556.7,451.3,1008,1008,1008,.09,0,.19,0,.28,0s.19,0,.28,0c556.39,0,1007.43-451.03,1007.43-1007.4,0-.1,0-.2,0-.3s0-.2,0-.29Zm-1422.46,485.12c-19.22,0-36.66-7.56-49.56-19.86l-111.09,111.09c44.31,43.7,105.15,70.67,172.3,70.67H1651.81c-164.8,163.98-391.97,265.34-642.81,265.34s-479.85-102.17-644.8-267.31l68.7-68.7c-45.12-44.5-73.1-106.34-73.1-174.72V605.18c0-135.53,109.87-245.4,245.4-245.4h804.47c68.38,0,130.22,27.98,174.72,73.1l68.68-68.68c165.14,164.95,267.29,392.94,267.29,644.79,0,177.88-50.97,343.85-139.09,484.12H593.54Z"/></g><g><path d="M2536.47,584.64h626.88c43.53,0,80.53,12.7,111,38.08,30.47,25.39,45.72,56.22,45.72,92.48v652.8h-105.78v-286.14h-728.75v286.14h-105.78V715.2c0-36.27,15.23-67.09,45.7-92.48,30.47-25.38,67.48-38.08,111.02-38.08Zm-50.94,409.09h728.75v-278.53c0-11.59-5.02-21.58-15.02-29.92-10.02-8.34-21.98-12.52-35.92-12.52h-626.88c-13.94,0-25.91,4.17-35.92,12.52s-15.02,18.33-15.02,29.92v278.53Z"/><path d="M3899.9,826.17h-327.8v410.19c0,11.61,5,21.58,15.02,29.92,10,8.34,21.98,12.5,35.92,12.5h276.86v89.22h-276.86c-44.41,0-81.86-12.88-112.33-38.62s-45.7-56.75-45.7-93.02V530.23h107.09v206.72h327.8v89.22Z"/><path d="M4155.85,736.95h454.5c44.39,0,82.05,12.88,112.95,38.62s46.38,56.77,46.38,93.03v367.75c0,36.27-15.47,67.27-46.38,93.02s-68.56,38.62-112.95,38.62h-454.5c-43.53,0-80.75-12.88-111.66-38.62s-46.36-56.75-46.36-93.02v-367.75c0-36.27,15.45-67.28,46.36-93.03s68.12-38.62,111.66-38.62Zm454.5,89.22h-454.5c-13.94,0-25.91,4.17-35.91,12.52-10.02,8.34-15.02,18.33-15.02,29.92v367.75c0,11.61,5,21.58,15.02,29.92,10,8.34,21.97,12.5,35.91,12.5h454.5c13.92,0,25.89-4.16,35.91-12.5,10-8.34,15.02-18.31,15.02-29.92v-367.75c0-11.59-5.02-21.58-15.02-29.92-10.02-8.34-21.98-12.52-35.91-12.52Z"/><path d="M5905.86,736.95c44.41,0,81.84,12.88,112.31,38.62s45.72,56.77,45.72,93.03v499.39h-105.8v-499.39c0-11.59-5.23-21.58-15.67-29.92-10.45-8.34-22.64-12.52-36.56-12.52h-314.75c-13.94,0-25.91,4.17-35.92,12.52s-15.02,18.33-15.02,29.92v499.39h-108.39v-499.39c0-11.59-5.02-21.58-15.03-29.92s-21.98-12.52-35.91-12.52h-316.05c-13.94,0-25.92,4.17-35.92,12.52-10.02,8.34-15.02,18.33-15.02,29.92v499.39h-108.39V736.95h1000.39Z"/><path d="M7183.1,736.95c44.41,0,81.84,12.88,112.31,38.62s45.72,56.77,45.72,93.03v499.39h-105.8v-499.39c0-11.59-5.23-21.58-15.67-29.92-10.45-8.34-22.64-12.52-36.56-12.52h-314.75c-13.94,0-25.91,4.17-35.92,12.52s-15.02,18.33-15.02,29.92v499.39h-108.39v-499.39c0-11.59-5.02-21.58-15.03-29.92s-21.98-12.52-35.91-12.52h-316.05c-13.94,0-25.92,4.17-35.92,12.52-10.02,8.34-15.02,18.33-15.02,29.92v499.39h-108.39V736.95h1000.39Z"/><path d="M8214.81,1485.5c0,36.98-15.25,68.36-45.72,94.11-30.47,25.75-67.91,38.62-112.31,38.62h-472.77v-90.3h472.77c13.94,0,25.91-4.17,35.92-12.52,10-8.34,15.02-18.33,15.02-29.92v-117.5h-505.42c-43.53,0-80.75-12.88-111.66-38.62s-46.36-56.75-46.36-93.02v-497.22h107.08v497.22c0,11.61,5,21.58,15.02,29.92s21.98,12.5,35.92,12.5h454.48c13.94,0,25.91-4.16,35.92-12.5,10-8.34,15.02-18.31,15.02-29.92v-497.22h107.09v746.36Z"/></g></g></g></g></svg>