<svg xmlns="http://www.w3.org/2000/svg" viewBox="0 0 2016 2016"><defs><style>.cls-1{fill:#fff;}.cls-2{fill:#caa846;}</style></defs><g id="レイヤー_2" data-name="レイヤー 2"><g id="レイヤー_1-2" data-name="レイヤー 1"><circle class="cls-1" cx="1008" cy="1008" r="945"/><path class="cls-2" d="M915,845.5a69.44,69.44,0,0,0-69.44,69.44v184.93a69.22,69.22,0,0,0,21.58,50.28l283.08-283.07a69.24,69.24,0,0,0-50.28-21.58Z"/><path class="cls-2" d="M683.61,1212.84V802A118.38,118.38,0,0,1,802,683.6h410.88a118.05,118.05,0,0,1,84.91,35.89L1473.3,544a71.61,71.61,0,0,0-52-22.28H593.54a71.83,71.83,0,0,0-71.83,71.84v827.75a71.59,71.59,0,0,0,22.28,52l175.52-175.52A118,118,0,0,1,683.61,1212.84Z"/><path class="cls-2" d="M1493.16,593.53v561.92a13.87,13.87,0,0,1-13.87,13.86H1344.6a13.35,13.35,0,0,1-13.35-13.35V802a118,118,0,0,0-33.47-82.48l-147.6,147.59a69.19,69.19,0,0,1,19.16,47.86v240.3a14.07,14.07,0,0,1-14.07,14.07H915a69.21,69.21,0,0,1-47.86-19.16L719.51,1297.74A118,118,0,0,0,802,1331.21H1643.3a11.75,11.75,0,0,0,11.76-11.76V605.18a244.58,244.58,0,0,0-70.67-172.29L1473.3,544A71.62,71.62,0,0,1,1493.16,593.53Z"/><path class="cls-2" d="M2016,1008C2016,451.3,1564.7,0,1008,0h-.57C451,0,0,451,0,1007.4v.6c0,556.7,451.3,1008,1008,1008h.57C1565,2016,2016,1565,2016,1008.6v-.6ZM593.54,1493.12A71.53,71.53,0,0,1,544,1473.26L432.9,1584.35A244.63,244.63,0,0,0,605.2,1655H1651.81c-164.79,164-392,265.34-642.81,265.34-251.86,0-479.85-102.17-644.8-267.31l68.7-68.7a244.64,244.64,0,0,1-73.1-174.72V605.18c0-135.53,109.86-245.39,245.4-245.39h804.46a244.65,244.65,0,0,1,174.73,73.1l68.68-68.68c165.13,165,267.29,392.94,267.29,644.79,0,177.88-51,343.85-139.09,484.12Z"/></g></g></svg>