<?xml version="1.0" encoding="UTF-8"?><svg xmlns="http://www.w3.org/2000/svg" viewBox="0 0 627.56 485.92"><g id="a"/><g id="b"><g id="c"><g><g><path d="M0,463.71c7.64-34.71,8.68-72.89,9.02-94.75l12.5,.69c-.69,22.21-2.43,62.13-8.68,99.26l-12.84-5.21Zm.69-149.94c3.82,.35,6.94,.35,9.72,.35s5.55,0,9.02-.35c4.86-3.47,9.02-9.37,12.5-14.58-8.68-15.27-17.7-27.77-31.58-43.38l4.86-15.97c19.09,21.86,31.58,39.57,44.08,59-8.68,13.19-15.62,21.52-23.6,29.5-11.11,.35-15.62,.69-23.95,.69l-1.04-15.27Zm48.94,171.46v-122.52c-13.54,.35-24.99,.35-32.97,.35H4.17l-1.04-15.97c6.25,0,14.23,.35,22.91,.35,12.15,0,25.68-.35,38.18-.69v138.83l-14.58-.35ZM17.01,202.36c2.78,3.12,5.9,7.98,8.33,11.11,6.25-10.76,12.15-23.6,16.66-40.26l14.92,5.21c-6.94,19.78-16.31,40.26-28.46,61.78-5.55-7.64-11.45-16.31-16.66-21.17l5.21-16.66Zm5.9,270.02c5.9-39.91,6.94-73.93,7.29-102.04l12.5,.35c-.35,32.28-1.39,68.37-7.29,106.55l-12.5-4.86ZM106.9,212.77c-14.23,26.38-25.68,44.77-45.47,71.5-8.33-12.5-16.31-22.91-25.34-34.36,13.19-19.78,25.34-42,34.36-66.29l13.88,5.21c-10.06,25.68-21.52,46.16-30.89,61.43,3.12,4.17,5.55,5.55,7.98,9.02,10.41-15.27,21.87-32.97,31.93-56.57l13.54,10.06Zm-3.47,75.31c2.78,11.45,4.51,23.25,6.59,35.4-20.13,2.43-39.22,4.51-64.21,4.86,33.32-38.87,52.41-70.46,71.5-107.94l7.29,6.25c20.13-14.23,33.67-31.93,43.73-52.76l19.44,1.39c-14.58,28.81-34.71,54.49-61.78,73.23l-2.43-6.59c-9.37,17.01-20.13,34.01-31.93,50.33l11.8-4.17Zm-12.84,5.55c-4.86,6.59-9.72,13.19-15.62,19.78,5.9-.35,11.11-.35,19.09-1.74-.69-5.9-1.39-11.45-3.47-18.05Zm-9.72,191.59v-140.22c11.11-.69,21.52-2.08,31.93-3.82,1.74,7.98,4.17,17.7,5.55,28.11l-13.19,4.51s-1.04-6.94-2.78-14.58c-3.82,1.39-5.55,1.39-6.94,1.39v124.6h-14.58Zm29.85-18.39c-2.43-29.16-6.25-58.31-11.8-87.12l12.5-3.12c5.55,29.5,9.72,58.31,13.54,88.16l-14.23,2.08Zm21.17-101c-2.43-13.54-14.92-68.37-18.4-81.56l13.19-4.51c2.08,9.02,17.7,72.89,19.44,81.22l-14.23,4.86Zm136.4,120.09c-36.1-16.31-79.48-30.89-120.44-43.04l2.78,16.66-14.23,3.12c-3.12-32.28-8.68-60.04-14.92-87.81l12.49-3.12c4.51,19.09,7.98,37.48,11.45,57.27l2.78-4.51c42.69,12.5,83.99,27.42,130.5,46.51l-10.41,14.92Zm-132.93-177.7c14.92-.69,32.28-2.43,46.86-11.8-6.25-7.98-13.88-20.13-19.44-31.24-6.94,7.98-14.23,14.92-23.6,21.17l-6.25-17.35c9.37-5.55,22.21-17.01,32.62-29.5,12.15,23.25,25.34,44.43,41.65,60.39-21.17,16.31-45.47,22.21-66.29,25.68l-5.55-17.35Zm137.44,80.17c-28.11-15.27-52.06-24.99-79.48-36.1-14.92,5.9-23.95,8.68-36.79,11.45l-6.94-16.31c27.07-4.86,51.02-13.88,75.66-34.36,26.03,16.66,47.55,24.64,74.27,31.58l-5.21,15.96c-19.78-5.21-47.55-15.96-68.03-28.46,0,0-6.94,6.59-14.92,10.41,23.6,9.02,46.86,20.13,72.54,31.93l-11.11,13.88Zm17.35,65.94c-43.04-19.09-81.56-32.62-132.24-46.86l9.02-13.54c51.02,15.62,85.38,26.38,134.32,46.51l-11.11,13.88Zm-38.87-37.83c-25.68-15.97-47.55-26.03-73.93-37.14l9.72-13.54c24.99,10.76,48.94,22.56,75.32,36.44l-11.11,14.23Zm14.58-192.28c-8.33,28.11-19.09,48.24-41.3,65.6-19.78-16.31-30.2-36.79-43.73-65.6h85.03Zm40.96,98.92c-19.78-3.47-40.61-9.72-63.52-21.87,24.3-22.56,34.71-44.77,43.04-70.46v-24.29h-94.06c8.33-11.11,11.8-18.74,16.66-28.46l17.7,1.04c-1.74,4.86-3.47,7.98-5.55,11.8h80.87v42c-7.64,24.64-17.35,46.51-31.58,62.82,12.5,5.55,27.42,9.37,42.34,10.07l-5.9,17.35Zm-101.69-84.34c4.51,12.49,10.76,21.52,19.09,31.24,10.07-9.37,15.97-20.13,18.74-31.24h-37.83Z"/><path d="M606.34,471.69c-8.68-27.42-18.05-52.06-29.5-76.01l9.72-2.43h-230.81l6.25,2.43c-7.98,24.3-17.7,44.77-31.93,67.33l-17.01-9.37c15.96-20.48,23.6-40.26,31.24-60.39h-9.37v-131.89h94.41v-88.16h16.31v103.77h-95.1v100.65h236.36v-100.65h-113.49v-48.24h138.48v15.62h-122.17v17.01h112.8v131.89h-7.29c10.07,24.64,18.74,45.81,28.11,72.54l-17.01,5.9Zm-254.06,3.47c13.19-23.25,21.87-44.77,30.89-72.89l15.96,5.21c-8.68,27.07-17.35,49.98-31.24,76.7l-15.62-9.02Zm22.56-116.62v-62.47h187.77v62.47h-187.77Zm172.15-46.86h-156.53v31.24h156.53v-31.24Zm-130.15,173.19c-2.08-24.99-7.29-49.98-13.88-74.62l16.66-2.43c6.59,23.25,12.15,49.63,15.62,74.27l-18.4,2.78Zm41.3-6.59c-4.86-27.77-10.07-49.98-17.35-73.58l15.97-2.78c6.94,21.87,13.88,47.2,19.78,73.93l-18.39,2.43Zm34.01,5.55c-5.55-27.42-11.11-49.98-20.13-73.23l17.01-4.17c7.98,23.25,14.23,45.81,20.48,74.27l-17.35,3.12Zm-18.74-273.15v-37.48h16.31v21.87h122.17v15.62h-138.48Zm59.7,264.82c-5.9-25.34-12.84-48.59-22.56-73.93l15.62-3.82c10.76,27.77,17.7,50.33,23.95,74.62l-17.01,3.12Zm33.32,9.02c-6.94-30.54-14.58-55.88-24.64-78.44l16.31-4.86c9.72,23.6,18.05,49.28,26.03,77.75l-17.7,5.55Z"/></g><g><path d="M131.11,77.14c-9.61,18.65-26.14,37.72-50.01,44.08-5.23,1.41-10.45,2.12-15.68,2.12-19.78,0-37.44-10.6-37.44-36.31v-.99c.28-10.88,1.13-37.72,1.13-62.16,0-7.06-.14-14.13-.28-20.34l7.06,.14c.14,4.94,.14,10.46,.14,16.11,0,25.57-.99,55.95-1.27,66.4v.71c0,21.19,14.55,29.53,30.8,29.53,4.52,0,9.18-.42,13.71-1.7,19.5-5.23,36.03-20.91,46.48-42.53l5.37,4.94Zm-13.85-12.57c-9.18,21.47-26.56,36.87-41.11,40.69-4.1,1.13-7.91,1.7-11.3,1.7-13.85,0-20.63-9.04-20.63-22.46v-1.27c.28-8.76,.71-50.3,2.4-79.26l7.21,.14c-1.84,26.7-2.54,69.79-2.83,79.4v.99c0,9.32,5.09,15.4,14.83,15.4,2.54,0,5.37-.42,8.48-1.27,16.11-4.38,31.51-22.89,37.16-39.56l5.79,5.51Z"/><path d="M163.32,110.06c11.16-.85,19.07-3.67,23.59-8.05-12.01-3.39-21.33-11.16-22.75-22.89-2.12,5.93-3.25,13.14-3.25,21.47v1.41l-18.23,1.84c-.99-8.62-1.41-19.92-1.41-31.65,0-15.96,.85-32.64,2.68-43.37l5.65,.42c-1.84,11.16-2.68,28.11-2.68,43.66,0,9.32,.28,18.23,.85,25.01l7.77-.85c.99-14.83,6.08-26.7,14.69-37.44-1.55,4.66-2.12,8.9-2.12,12.71,0,16.53,13.56,23.74,28.4,26-2.83,6.64-9.18,13.85-27.97,17.94l-5.23-6.22Zm25.43-88.72l6.08-.28c.28,6.78,.56,13,1.13,19.36-15.12,2.97-27.97,8.62-40.83,32.21,.57-23.88,1.55-31.93,3.53-42.67l5.79,.42c-2.12,8.76-3.11,14.83-3.96,25.43,5.09-8.05,16.11-16.11,29.25-19.64l-.99-14.83Zm-15.4,47.75c0-4.38,1.13-9.32,3.53-14.69,5.09-3.81,11.59-6.78,19.64-8.19,.85,14.83,1.41,23.45,1.41,34.47,0,3.25,0,6.64-.14,10.45-15.4-1.41-24.44-9.47-24.44-22.04Zm.71,53.83c13.99-3.53,26.14-10.31,30.38-24.3,7.06-.56,10.88-1.27,13.99-2.4,12.86-4.38,19.78-16.53,19.78-28.4,0-14.13-10.03-27.97-32.21-27.97h-1.98c-.42-6.5-.71-12.86-.85-19.07l5.93-.28c0,4.8,.14,9.47,.42,13.99,23.59,1.13,34.19,17.1,34.19,33.34,0,14.41-8.33,29.1-23.45,33.91-3.67,1.13-7.63,1.98-11.73,2.4-4.66,11.73-15.54,20.34-30.09,24.16l-4.38-5.37Zm18.23-42.1c0-8.76-.57-17.09-1.13-27.41-3.53,.85-7.06,2.26-10.31,4.66-1.7,3.81-2.4,7.21-2.4,10.17,0,8.62,6.22,13.7,13.85,15.54v-2.97Zm13.14,6.08c0-14.55-.57-24.3-1.27-41.54,18.65,.99,26.28,11.87,26.28,22.75,0,9.61-6.08,19.21-15.4,21.62-3.67,.99-6.22,1.41-9.61,1.41v-4.24Zm5.79-2.12c.71-.14,1.41-.28,2.12-.57,7.21-2.12,11.16-8.9,11.16-15.96s-4.38-14.55-14.27-16.53c.42,11.73,.99,22.46,.99,33.06Z"/><path d="M289.06,117.26c26,0,49.31-5.65,63.43-23.45,4.52-5.79,7.49-14.55,7.49-23.31,0-13.85-7.35-27.41-26.7-28.26h-3.25c-17.24,0-45.78,4.66-68.24,9.75l-1.7-7.06c25.15-4.94,50.58-9.47,69.37-9.47h3.96c24.02,.85,33.2,17.8,33.2,34.9,0,10.31-3.39,20.77-8.76,27.69-16.11,20.77-42.1,26.14-66.26,26.56l-2.54-7.35Zm-5.93-16.67c20.77,0,42.38-1.55,54.68-15.68,3.53-4.1,5.51-9.61,5.51-14.55,0-6.92-3.81-13-12.57-13.28h-1.27c-13.99,0-39.42,6.08-63.29,11.87l-1.84-7.21c23.03-5.51,52.13-11.44,65.27-11.44h1.27c13.14,.28,19.21,9.75,19.21,20.06,0,6.78-2.4,13.85-7.21,19.21-11.73,13.42-32.07,18.37-57.36,18.37l-2.4-7.35Zm56.94-69.51c-16.95-.71-41.82-3.67-58.21-6.78l1.27-7.06c18.93,3.67,37.58,5.79,58.07,6.92l-1.13,6.92Zm2.68-15.82c-19.78-.85-40.55-3.39-58.07-7.06l1.13-6.78c15.54,3.96,40.83,6.92,56.94,6.92h1.13l-1.13,6.92Z"/><path d="M481.34,103.28c-4.1,.42-8.05,.56-11.73,.56-31.08,0-46.62-12.72-49.02-26.84-.28-1.41-.28-2.83-.28-4.24,0-20.91,25.01-44.36,67.39-46.91l-1.84-9.18c-23.03,2.4-78.98,5.23-108.93,5.79l-.71-7.21c30.38,0,93.67-3.11,114.72-5.93l4.8,23.17h-.85c-41.96,0-67.81,21.05-67.81,40.12,0,.99,.14,2.12,.28,3.25,2.12,12.57,18.79,20.63,40.55,20.63,4.8,0,9.75-.28,14.83-1.13l-1.41,7.91Zm-7.49,16.95c-42.81,0-64.99-13.56-69.79-39.84-.42-2.26-.56-4.66-.56-6.92,0-16.11,9.89-30.52,20.77-38-18.08,1.13-28.96,2.26-45.49,3.96l-.85-7.21c19.36-1.7,39.28-2.83,66.97-4.52-25.01,14.69-34.76,31.08-34.76,45.63,0,1.98,.28,3.96,.57,5.79,4.24,22.6,22.89,33.91,65.7,33.91h3.25l-1.27,7.21h-4.52Z"/><path d="M627.56,84.2c-9.04,29.67-26.28,38.99-40.69,38.99-9.75,0-18.22-4.38-21.76-9.75-3.67-5.65-4.38-11.3-4.38-17.09,0-4.24,.28-8.62,.28-13,0-2.26,0-4.38-.28-6.64-.28-2.12-1.27-3.25-3.11-3.25-.85,0-1.98,.28-3.25,.99-5.93,2.97-19.36,13.28-29.25,50.15l-23.17-10.31c15.26-40.27,33.48-87.17,43.37-114.3l6.78,2.26c-9.89,26.42-27.97,73.04-41.54,108.36l10.31,4.66c10.45-34.19,24.44-43.94,30.52-46.91,2.97-1.41,5.37-2.12,7.63-2.12,4.95,0,7.77,3.53,8.48,9.61,.28,1.84,.28,3.81,.28,5.79,0,4.8-.42,9.75-.42,14.41,0,5.09,.56,9.75,3.11,13.28,2.83,3.81,8.9,6.78,16.11,6.78,11.73,0,26.28-8.05,34.33-35.04l6.64,3.11Zm-16.25-7.49c-5.79,21.62-15.68,29.95-23.45,29.95-6.78,0-12.01-6.22-12.01-15.54v-.99c.14-4.38,.28-8.48,.28-12.15,0-11.3-1.27-18.93-6.92-21.47-.71-.28-1.7-.56-2.97-.56-7.21,0-22.04,6.36-33.77,19.92,13.14-31.79,22.46-53.83,29.81-70.22l7.21,2.26c-8.34,16.25-14.41,30.09-21.76,48.32,4.95-3.81,12.01-7.21,18.37-7.21,2.12,0,3.96,.28,5.79,1.13,8.62,3.81,11.3,10.74,11.3,26.98,0,3.67-.14,7.91-.42,12.72v.71c0,4.66,2.4,8.05,5.79,8.05,4.8,0,11.44-6.64,15.54-25.15l7.21,3.25Z"/></g></g></g></g></svg>