<?xml version="1.0" encoding="UTF-8"?><svg xmlns="http://www.w3.org/2000/svg" viewBox="0 0 634.11 479.52"><g id="a"/><g id="b"><g id="c"><g><g><path d="M254.41,435.45c-12.84,0-18.39-5.21-18.39-18.05v-2.43l3.47-87.12h-67.33l1.04-49.98h107.59v-88.85H37.14v81.56c0,66.99-1.39,128.07-22.56,180.83l-14.58-13.19c16.31-34.36,20.82-99.96,20.82-167.64v-97.18H296.4v120.09h-107.94l-.35,18.74h68.03l-4.16,102.73c0,3.47,.69,4.86,5.21,4.86h6.25c3.82,0,5.55-2.08,5.55-60.04l14.58,9.37c-.35,60.04-4.16,66.29-18.74,66.29h-10.41Zm-220.74,31.58c26.03-63.17,27.42-127.72,27.42-189.16h87.81l-1.04,49.98H82.95v-15.62h49.63l.35-18.74h-56.23c0,48.94-1.04,86.77-12.15,134.32,41.65-12.84,56.92-27.77,61.78-63.51h-43.38v-15.62h63.86c-6.94,51.37-16.66,74.27-74.62,97.18l-9.02-12.84s-5.55,26.03-15.97,46.16l-13.54-12.15Zm27.77-210.33v-46.51h195.06v46.51H61.43Zm179.44-31.93H77.05v17.35H240.87v-17.35Zm5.21,249.2c-37.14,0-48.59-9.02-48.59-47.9,0-3.47,.35-7.29,.35-11.45l2.08-50.33h-17.7c-6.94,63.17-27.42,89.2-87.12,115.23l-10.41-14.58c59.7-23.95,76.7-48.24,84.69-116.27h47.2l-2.78,66.64c-.35,4.86-.35,9.02-.35,12.84,0,26.03,6.25,30.2,32.97,30.2h18.4c28.11,0,31.93-4.86,31.93-82.26l15.62,8.33c0,80.17-9.37,89.55-45.12,89.55h-21.17Z"/><path d="M455.71,226.85c-21.52-13.88-34.01-26.38-47.9-40.61h-25.34c-14.92,21.52-38.87,40.96-59.35,52.41l-4.17-18.74c19.44-9.37,42.69-29.5,54.49-49.29h40.61c17.7,19.09,26.03,27.77,46.86,39.22l-5.21,17.01Zm-117.66,198.18c-6.25-21.52-10.76-37.48-17.01-53.1l12.15-5.21c5.55,16.66,10.76,32.28,17.01,53.8l-12.15,4.51Zm27.77-11.11l-5.21,3.12c-4.86-19.44-10.41-37.83-17.01-53.1l12.15-4.86c4.17,13.88,7.29,24.99,10.07,40.61v-44.77h-34.36v-15.62h49.28v96.49c-19.09,4.51-43.04,6.59-57.27,7.64l-2.08-15.96c15.27-.35,29.5-2.08,44.43-4.51v-9.02Zm85.03,44.77c-39.91,9.02-78.79,16.31-122.87,20.82l-2.43-17.7c43.38-4.17,78.79-10.07,125.29-19.44v16.31Zm-5.21-193.32s-3.12-1.39-9.02-6.25h-72.89c-10.06,9.02-20.48,16.31-30.89,21.87l-4.17-18.39c20.13-12.15,43.38-29.5,62.13-55.88h9.72c14.92,15.27,30.54,30.54,51.02,41.3l-5.9,17.35Zm-114.19,56.57v-15.62h34.36v-14.23h-21.17v-15.62h36.1v45.47h-49.28Zm87.46-77.75c-7.29-6.25-14.58-13.19-22.21-20.13-6.59,8.33-11.45,14.23-18.05,20.13h40.26Zm-16.66,77.75v-45.47h36.79v15.62h-21.87v14.23h32.28v15.62h-47.2Zm42.34,105.51l4.51-2.08c-18.74,5.55-32.97,7.29-46.86,9.37v-95.45h47.2v15.62h-32.28v38.53c3.12-8.68,6.25-20.48,8.33-35.75l12.49,5.21c-4.17,15.97-9.37,30.89-16.31,44.77l-4.51-2.43v11.8c7.29-1.39,19.09-3.82,19.09-3.82l-5.21-2.08c6.25-12.49,12.15-27.07,15.97-44.43l11.11,5.21c-3.47,14.23-9.72,28.81-14.23,39.91,3.12-1.04,5.55-1.39,8.68-3.12l-.35,14.92c30.54-16.31,45.12-36.44,54.49-62.47h-46.16v-15.62h69.76c-14.58,45.47-34.71,74.97-75.66,96.49l-10.07-14.58Zm3.12-146.47c13.54-31.93,18.39-63.51,20.48-105.51l16.31,2.08c-3.47,44.08-8.68,78.44-23.6,113.15l-13.19-9.72Zm12.84,41.3v-15.62h23.95l-8.33-5.55c5.55-11.11,9.37-23.6,13.19-42.34h48.24v19.78c0,14.92-1.39,30.2-3.47,43.73h-73.58Zm139.87,156.53c-22.21-21.87-37.48-41.65-54.49-77.05-13.54,33.32-32.28,54.14-64.9,76.7l-11.45-15.27c35.75-21.87,55.88-45.12,76.01-97.53,20.13,41.65,38.87,76.7,65.94,97.18l-11.11,15.97Zm-80.52-172.15c1.74-10.07,2.08-21.87,2.08-32.62h-19.78c-3.47,14.58-6.59,24.64-10.76,32.62h28.46Zm-24.99-71.15c3.47-18.74,5.21-36.44,5.9-55.88l14.23,2.08c-1.04,15.27-1.39,26.72-3.12,37.83h10.07v-52.41h15.62v68.37h-42.69Zm61.43,86.77c2.08-13.54,3.12-28.81,3.12-43.73v-19.78h59v15.27h-43.04c0,10.07-.69,22.21-1.04,32.62h51.71v15.62h-69.76Zm3.12-86.77v-68.37h15.97v52.41h43.04v15.97h-59Zm64.21,208.59c-27.77-24.99-46.16-56.92-63.52-98.57h65.94v15.62h-41.3c13.88,30.89,29.85,52.06,49.29,66.99l-10.41,15.97Z"/></g><g><path d="M144,83.12c-10.85,21.06-29.52,42.6-56.48,49.78-5.9,1.6-11.81,2.39-17.71,2.39-22.34,0-42.28-11.97-42.28-41v-1.12c.32-12.28,1.28-42.6,1.28-70.2,0-7.98-.16-15.95-.32-22.97l7.98,.16c.16,5.58,.16,11.81,.16,18.19,0,28.88-1.12,63.18-1.44,74.99v.8c0,23.93,16.43,33.35,34.78,33.35,5.11,0,10.37-.48,15.48-1.91,22.02-5.9,40.68-23.61,52.49-48.02l6.06,5.58Zm-15.64-14.2c-10.37,24.25-29.99,41.64-46.43,45.95-4.63,1.28-8.93,1.92-12.76,1.92-15.64,0-23.29-10.21-23.29-25.37v-1.44c.32-9.89,.8-56.8,2.71-89.51l8.14,.16c-2.07,30.15-2.87,78.82-3.19,89.66v1.12c0,10.53,5.74,17.39,16.75,17.39,2.87,0,6.06-.48,9.57-1.44,18.19-4.95,35.58-25.85,41.96-44.67l6.54,6.22Z"/><path d="M222.66,50.74c-7.18,12.44-13.4,25.21-18.99,35.74-3.19,6.06-8.14,9.73-12.76,9.73-5.27,0-10.05-4.63-11.65-15.95-.96-6.06-1.28-13.88-1.28-22.5,0-19.78,1.92-43.24,3.51-56.16l8.14,.64c-2.07,13.88-3.67,38.13-3.67,57.12,0,7.82,.16,14.84,.8,19.78,.64,5.9,2.55,8.46,4.63,8.46,1.75,0,3.67-1.75,5.42-4.63,7.34-12.28,14.04-23.29,21.54-36.06l4.31,3.83Zm-5.74-5.11c-7.34,11.81-12.6,16.43-15.96,16.43s-4.95-4.95-4.95-11.81v-1.12c.16-5.74,2.39-29.52,5.26-45.79l7.98,.64c-3.51,14.84-5.74,38.29-5.74,45.15,0,2.55,.32,3.67,.96,3.67,1.28,0,3.83-3.67,8.14-10.85l4.31,3.67Zm-18.19,66.53c41.32-1.91,54.09-17.39,55.04-38.29,.16-3.67,.32-7.82,.32-12.13,0-18.19-1.6-41-3.19-61.74h8.3c1.28,19.94,2.39,46.75,2.39,65.09,0,3.35-.16,6.54-.16,9.25-.64,20.58-10.53,41.48-57.28,46.59l-5.42-8.77Zm12.13,19.3c48.18-7.02,60.95-30.63,61.74-57.76v-4.79c0-15.64-1.6-46.11-1.75-68.92h8.14V3.35c0,23.61,1.28,49.46,1.28,65.09v5.58c-.96,31.91-17.07,56.32-64.46,65.09l-4.95-7.66Z"/><path d="M450.18,112.64c-4.63,.48-9.09,.64-13.24,.64-35.1,0-52.65-14.36-55.36-30.31-.32-1.6-.32-3.19-.32-4.79,0-23.61,28.24-50.1,76.1-52.97l-2.07-10.37c-26.01,2.71-89.19,5.9-123.01,6.54l-.8-8.14c34.3,0,105.78-3.51,129.55-6.7l5.42,26.17h-.96c-47.39,0-76.58,23.77-76.58,45.31,0,1.12,.16,2.39,.32,3.67,2.39,14.2,21.22,23.29,45.79,23.29,5.42,0,11.01-.32,16.75-1.28l-1.6,8.93Zm-8.46,19.15c-48.34,0-73.39-15.32-78.82-44.99-.48-2.55-.64-5.26-.64-7.82,0-18.19,11.17-34.46,23.45-42.92-20.42,1.28-32.71,2.55-51.37,4.47l-.96-8.14c21.86-1.91,44.35-3.19,75.62-5.11-28.24,16.59-39.25,35.1-39.25,51.53,0,2.23,.32,4.47,.64,6.54,4.79,25.53,25.85,38.29,74.19,38.29h3.67l-1.44,8.14h-5.11Z"/><path d="M525.49,116.63h4.79c57.76,0,88.87-22.5,88.87-53.93,0-3.51-.48-7.18-1.28-11.01-4.63-21.7-25.05-28.08-50.58-28.08s-56,6.38-80.57,10.21l-1.92-8.14c25.21-3.51,55.84-9.57,82.17-9.57,28.88,0,52.65,7.34,58.39,33.98,.96,4.47,1.44,8.62,1.44,12.76,0,35.9-34.62,61.9-92.22,61.9-2.07,0-3.99-.16-6.06-.16l-3.03-7.98Zm-7.98-20.9c6.06,.48,11.81,.64,17.23,.64,43.08,0,64.78-12.92,64.78-32.87,0-2.39-.16-4.79-.8-7.18-2.55-10.85-15.48-14.68-32.23-14.68-23.29,0-53.93,7.18-74.83,12.76l-2.07-8.62c32.87-7.82,58.08-11.97,76.58-11.97,23.29,0,36.06,6.54,40.05,20.74,.96,3.19,1.44,6.38,1.44,9.57,0,21.7-22.66,40.68-73.23,40.68-4.31,0-8.93-.16-13.72-.48l-3.19-8.62Z"/></g></g></g></g></svg>